<?xml version="1.0" encoding="UTF-8"?>
<svg xmlns="http://www.w3.org/2000/svg" width="16" height="16" viewBox="0 0 16 16">
  <g fill="#bebebe">
    <path d="M 13.333333,2 C 13.701333,2 14,2.2986667 14,2.6666667 V 3.8380001 L 12.666667,5.1713334 V 3.3333334 H 3.3333334 V 8.7333334 l 2.6666667,-2.6666667 2.8853332,2.8853333 -0.943333,0.942 L 6,7.9533334 2.6666667,11.286 V 12.666667 H 9.6886667 L 10.15,12.667334 10.886,11.931334 12.6,12.666667 h 0.066667 v -1.838667 l 1.333333,-1.333333 V 13.333333 C 14,13.701333 13.701333,14 13.333333,14 H 2.6666667 C 2.3,14 2,13.7 2,13.333333 V 2.6666667 C 2,2.2986667 2.2986667,2 2.6666667,2 Z m 1.185334,3.2053334 0.942666,0.9426666 -5.185333,5.1853334 -0.944,-0.0013 0.0013,-0.9413334 z M 10.333333,4.6666667 c 0.552,0 1,0.448 1,1 0,0.552 -0.448,1 -1,1 -0.552,0 -1,-0.448 -1,-1 0,-0.552 0.448,-1 1,-1 z"/>
  </g>
</svg>
